<svg width="21" height="22" viewBox="0 0 21 22" fill="none" xmlns="http://www.w3.org/2000/svg">
<path d="M18.9375 21.125L13.8223 16.0098C12.3457 17.1348 10.6758 17.6973 8.8125 17.6973C7.30078 17.6973 5.89453 17.3281 4.59375 16.5898C3.29297 15.8164 2.27344 14.7793 1.53516 13.4785C0.761719 12.1777 0.375 10.7715 0.375 9.25977C0.375 7.74805 0.761719 6.3418 1.53516 5.04102C2.27344 3.74023 3.29297 2.7207 4.59375 1.98242C5.89453 1.20898 7.30078 0.822266 8.8125 0.822266C10.3242 0.822266 11.7305 1.20898 13.0312 1.98242C14.332 2.7207 15.3691 3.74023 16.1426 5.04102C16.8809 6.3418 17.25 7.74805 17.25 9.25977C17.25 11.1582 16.6699 12.8457 15.5098 14.3223L20.625 19.4375L18.9375 21.125ZM8.75977 15.2188C10.4121 15.2188 11.8184 14.6387 12.9785 13.4785C14.1035 12.3184 14.666 10.9297 14.666 9.3125C14.666 7.66016 14.1035 6.27148 12.9785 5.14648C11.8184 3.98633 10.4121 3.40625 8.75977 3.40625C7.14258 3.40625 5.75391 3.98633 4.59375 5.14648C3.43359 6.27148 2.85352 7.66016 2.85352 9.3125C2.85352 10.9297 3.43359 12.3184 4.59375 13.4785C5.75391 14.6387 7.14258 15.2188 8.75977 15.2188Z" fill="#828282"/>
</svg>
