<svg width="24" height="24" viewBox="0 0 24 24" fill="none" xmlns="http://www.w3.org/2000/svg">
<mask id="path-1-inside-1" fill="white">
<path d="M19.82 5.94L11.94 13.82L4.06 5.94L1.94 8.06L11.94 18.06L21.94 8.06L19.82 5.94Z"/>
</mask>
<path d="M19.82 5.94L11.94 13.82L4.06 5.94L1.94 8.06L11.94 18.06L21.94 8.06L19.82 5.94Z" fill="white"/>
<path d="M19.82 5.94L33.255 -7.49503L19.82 -20.9301L6.38497 -7.49503L19.82 5.94ZM11.94 13.82L-1.49503 27.255L11.94 40.6901L25.375 27.255L11.94 13.82ZM4.06 5.94L17.495 -7.49503L4.06001 -20.9301L-9.37502 -7.49503L4.06 5.94ZM1.94 8.06L-11.495 -5.37503L-24.9301 8.06L-11.495 21.495L1.94 8.06ZM11.94 18.06L-1.49503 31.495L11.94 44.9301L25.375 31.495L11.94 18.06ZM21.94 8.06L35.375 21.495L48.8101 8.06L35.375 -5.37503L21.94 8.06ZM6.38497 -7.49503L-1.49503 0.384974L25.375 27.255L33.255 19.375L6.38497 -7.49503ZM25.375 0.384974L17.495 -7.49503L-9.37503 19.375L-1.49503 27.255L25.375 0.384974ZM-9.37502 -7.49503L-11.495 -5.37503L15.375 21.495L17.495 19.375L-9.37502 -7.49503ZM-11.495 21.495L-1.49503 31.495L25.375 4.62497L15.375 -5.37503L-11.495 21.495ZM25.375 31.495L35.375 21.495L8.50497 -5.37503L-1.49503 4.62497L25.375 31.495ZM35.375 -5.37503L33.255 -7.49503L6.38497 19.375L8.50497 21.495L35.375 -5.37503Z" fill="black" mask="url(#path-1-inside-1)"/>
</svg>
