<svg width="18" height="19" viewBox="0 0 18 19" fill="none" xmlns="http://www.w3.org/2000/svg">
<path d="M2.27094 0.394591L9 7.49724L15.7014 0.42382C15.8188 0.291877 15.9603 0.186327 16.1173 0.113499C16.2743 0.0406717 16.4437 0.00206699 16.6152 0C16.9824 0 17.3346 0.153974 17.5942 0.428049C17.8539 0.702124 17.9998 1.07385 17.9998 1.46145C18.003 1.64063 17.9715 1.81861 17.9072 1.98448C17.8429 2.15034 17.7472 2.30059 17.6259 2.42601L10.8553 9.49942L17.6259 16.6459C17.8541 16.8816 17.988 17.2007 17.9998 17.5374C17.9998 17.925 17.8539 18.2967 17.5942 18.5708C17.3346 18.8449 16.9824 18.9988 16.6152 18.9988C16.4387 19.0066 16.2627 18.9755 16.0982 18.9076C15.9337 18.8396 15.7845 18.7363 15.6598 18.6043L9 11.5016L2.28478 18.5896C2.16779 18.7172 2.02803 18.819 1.87357 18.8892C1.7191 18.9595 1.55298 18.9967 1.38481 18.9988C1.01759 18.9988 0.665419 18.8449 0.40576 18.5708C0.1461 18.2967 0.000225279 17.925 0.000225279 17.5374C-0.00300286 17.3582 0.0284922 17.1802 0.0927777 17.0144C0.157063 16.8485 0.252783 16.6983 0.374062 16.5728L7.14466 9.49942L0.374062 2.35293C0.145862 2.11729 0.0120491 1.79819 0.000225279 1.46145C0.000225279 1.07385 0.1461 0.702124 0.40576 0.428049C0.665419 0.153974 1.01759 0 1.38481 0C1.71711 0.00438435 2.03556 0.146145 2.27094 0.394591Z" fill="black"/>
</svg>
