<svg width="20" height="21" viewBox="0 0 20 21" fill="none" xmlns="http://www.w3.org/2000/svg">
<path d="M2.52326 0.436127L10 8.28642L17.446 0.468433C17.5765 0.322601 17.7337 0.20594 17.9081 0.125447C18.0826 0.044953 18.2708 0.00228457 18.4613 0C18.8693 0 19.2606 0.170181 19.5492 0.473106C19.8377 0.776031 19.9998 1.18689 19.9998 1.61529C20.0033 1.81332 19.9683 2.01004 19.8969 2.19337C19.8255 2.37669 19.7191 2.54276 19.5844 2.68138L12.0615 10.4994L19.5844 18.3981C19.8379 18.6586 19.9866 19.0113 19.9998 19.3834C19.9998 19.8118 19.8377 20.2227 19.5492 20.5256C19.2606 20.8285 18.8693 20.9987 18.4613 20.9987C18.2653 21.0073 18.0696 20.9729 17.8869 20.8978C17.7042 20.8227 17.5383 20.7086 17.3998 20.5626L10 12.7123L2.53865 20.5464C2.40866 20.6874 2.25337 20.8 2.08174 20.8776C1.91011 20.9552 1.72554 20.9964 1.53867 20.9987C1.13066 20.9987 0.739354 20.8285 0.450844 20.5256C0.162334 20.2227 0.000250311 19.8118 0.000250311 19.3834C-0.00333651 19.1854 0.031658 18.9887 0.103086 18.8054C0.174515 18.622 0.28087 18.456 0.415625 18.3173L7.93851 10.4994L0.415625 2.60061C0.162069 2.34016 0.0133879 1.98747 0.000250311 1.61529C0.000250311 1.18689 0.162334 0.776031 0.450844 0.473106C0.739354 0.170181 1.13066 0 1.53867 0C1.90789 0.00484586 2.26173 0.161529 2.52326 0.436127Z" fill="black"/>
</svg>
