<svg width="27" height="28" viewBox="0 0 27 28" fill="none" xmlns="http://www.w3.org/2000/svg">
<path d="M8.03933 20.9639C9.62661 22.2138 11.4412 22.8354 13.5 22.8354C15.3545 22.8354 17.0169 22.325 18.5018 21.3046C19.9916 20.2808 21.0632 18.9434 21.726 17.2834L21.9105 16.8213L22.3736 17.0036L25.2785 18.1477L25.745 18.3315L25.56 18.7974C24.5951 21.2283 23.0133 23.1977 20.8253 24.6973C18.6334 26.1994 16.1871 26.9513 13.5 26.9513C11.8443 26.9513 10.2643 26.6562 8.76389 26.0645C7.41911 25.5341 6.20518 24.8119 5.12445 23.898L2.18455 26.8297L2.04406 26.9698L1.84573 26.9755C1.5227 26.9847 1.1844 26.9426 0.91719 26.7624C0.611937 26.5565 0.490644 26.2359 0.501546 25.9058L0.525931 18.1245L0.525984 18.1074L0.527206 18.0904C0.554775 17.7055 0.752838 17.3759 1.02683 17.1026M8.03933 20.9639L1.02683 17.1026L1.30435 17.3809L1.02683 17.1026M8.03933 20.9639L10.7298 18.2597L10.8608 18.128L10.8741 17.9427C10.9002 17.5778 10.7834 17.2426 10.5209 16.9809C10.2682 16.7288 9.94801 16.6037 9.59422 16.6037H2.05119H2.03341L2.01567 16.605C1.63101 16.6324 1.30095 16.8293 1.02683 17.1026M8.03933 20.9639L1.02683 17.1026M25.1543 1.02455L24.9559 1.0302L24.8154 1.1703L21.8756 4.1019C20.7954 3.1878 19.5822 2.46184 18.2384 1.92428C16.7374 1.32387 15.1566 1.02435 13.5 1.02435C10.8123 1.02435 8.36557 1.7807 6.17366 3.29133C3.9871 4.79828 2.40557 6.76262 1.44044 9.17713L1.25526 9.64041L1.71814 9.82659L4.62306 10.995L5.08813 11.1821L5.274 10.7166C5.93689 9.05632 7.00891 7.71437 8.49961 6.68227C9.98447 5.65423 11.6464 5.14022 13.5 5.14022C15.5592 5.14022 17.3744 5.76892 18.9627 7.034L16.2702 9.74035L16.1392 9.87201L16.1259 10.0573C16.0998 10.4222 16.2166 10.7574 16.4791 11.0191C16.7367 11.276 17.0647 11.3925 17.4217 11.372H24.9488C25.3511 11.372 25.6945 11.1753 25.9732 10.8974C26.2472 10.6242 26.4452 10.2945 26.4728 9.90963L26.474 9.89258L26.4741 9.87548L26.4985 2.09418C26.5093 1.76411 26.388 1.44355 26.0828 1.23764C25.8156 1.05739 25.4773 1.01535 25.1543 1.02455Z" fill="#7B61FF" stroke="#7B61FF"/>
</svg>
