<svg width="91" height="40" viewBox="0 0 91 40" fill="none" xmlns="http://www.w3.org/2000/svg">
<g filter="url(#filter0_d)">
<path d="M6.32812 31.9648V6.86328H17.7539C22.8867 6.86328 25.4531 9.10742 25.4531 13.5957C25.4531 16.6309 23.4551 19.1445 19.459 21.1367L27.4219 32H21.5508L13.9043 21.0488V18.9219C18.3574 18.1602 20.584 16.4316 20.584 13.7363C20.584 11.8848 19.541 10.959 17.4551 10.959H11.0742V31.9648H6.32812Z" fill="#7B61FF"/>
</g>
<path d="M34.2461 16.1953C37.7461 16.1953 39.4961 17.9258 39.4961 21.3867C39.4961 21.8789 39.4609 22.4062 39.3906 22.9688H30.7539C30.7539 25.4844 32.2227 26.7422 35.1602 26.7422C36.5586 26.7422 37.8008 26.5859 38.8867 26.2734V28.0312C37.8008 28.3438 36.4805 28.5 34.9258 28.5C30.6992 28.5 28.5859 26.4023 28.5859 22.207C28.5859 18.1992 30.4727 16.1953 34.2461 16.1953ZM30.7539 21.1641H37.4102C37.3633 19.0078 36.3086 17.9297 34.2461 17.9297C32.0586 17.9297 30.8945 19.0078 30.7539 21.1641ZM51.6719 28.1484C50.6562 28.3828 49.5625 28.5 48.3906 28.5C44.0156 28.5 41.8281 26.3711 41.8281 22.1133C41.8281 18.168 44.0156 16.1953 48.3906 16.1953C49.5625 16.1953 50.6562 16.3125 51.6719 16.5469V18.3047C50.6562 18.0703 49.5234 17.9531 48.2734 17.9531C45.4219 17.9531 43.9961 19.3398 43.9961 22.1133C43.9961 25.1992 45.4219 26.7422 48.2734 26.7422C49.5234 26.7422 50.6562 26.625 51.6719 26.3906V28.1484ZM56.8398 16.1953V28.5H54.6719V16.1953H56.8398ZM56.8398 11.7422V13.793H54.6719V11.7422H56.8398ZM62.7695 25.9922C63.6211 26.4141 64.5703 26.625 65.6172 26.625C68.1719 26.625 69.4492 25.0898 69.4492 22.0195C69.4492 19.3398 68.1797 18 65.6406 18C64.5469 18 63.5898 18.0938 62.7695 18.2812V25.9922ZM60.6016 16.6992C62.2344 16.3633 63.9219 16.1953 65.6641 16.1953C69.6094 16.1953 71.582 18.1445 71.582 22.043C71.582 26.3477 69.5977 28.5 65.6289 28.5C64.6445 28.5 63.6914 28.3047 62.7695 27.9141V32.9531H60.6016V16.6992ZM76.8086 11.7422V28.5H74.6406V11.7422H76.8086ZM78.9883 16.1953H81.3438L84.8242 25.8047L88.4219 16.1953H90.7188L85.6094 28.8633C84.7031 31.0977 83.3438 32.4922 81.5312 33.0469L80.6992 31.5117C82.0742 30.9102 83.0742 29.9297 83.6992 28.5703L78.9883 16.1953Z" fill="black"/>
<defs>
<filter id="filter0_d" x="0.328125" y="0.863281" width="29.0938" height="33.1367" filterUnits="userSpaceOnUse" color-interpolation-filters="sRGB">
<feFlood flood-opacity="0" result="BackgroundImageFix"/>
<feColorMatrix in="SourceAlpha" type="matrix" values="0 0 0 0 0 0 0 0 0 0 0 0 0 0 0 0 0 0 127 0"/>
<feOffset dx="-2" dy="-2"/>
<feGaussianBlur stdDeviation="2"/>
<feColorMatrix type="matrix" values="0 0 0 0 0 0 0 0 0 0 0 0 0 0 0 0 0 0 0.25 0"/>
<feBlend mode="normal" in2="BackgroundImageFix" result="effect1_dropShadow"/>
<feBlend mode="normal" in="SourceGraphic" in2="effect1_dropShadow" result="shape"/>
</filter>
</defs>
</svg>
