<svg width="291" height="27" viewBox="0 0 291 27" fill="none" xmlns="http://www.w3.org/2000/svg">
<g filter="url(#filter0_d)">
<path d="M3.21875 21.9766V5.24219H10.8359C14.2578 5.24219 15.9688 6.73828 15.9688 9.73047C15.9688 11.7539 14.6367 13.4297 11.9727 14.7578L17.2812 22H13.3672L8.26953 14.6992V13.2812C11.2383 12.7734 12.7227 11.6211 12.7227 9.82422C12.7227 8.58984 12.0273 7.97266 10.6367 7.97266H6.38281V21.9766H3.21875Z" fill="#7B61FF"/>
</g>
<path d="M30.826 6.93164V8.93555H24.533V12.0996H30.5271V14.1826H24.5066V17.4785H30.949V19.5H22.2215V6.93164H30.826ZM45.7319 18.9727C44.6479 19.3828 43.4174 19.5879 42.0405 19.5879C37.5287 19.5879 35.2729 17.4053 35.2729 13.04C35.2729 8.90918 37.5287 6.84375 42.0405 6.84375C43.4174 6.84375 44.6479 7.04883 45.7319 7.45898V9.56836C44.6479 9.09961 43.476 8.86523 42.2162 8.86523C39.1987 8.86523 37.6899 10.2568 37.6899 13.04C37.6899 16.0576 39.1987 17.5664 42.2162 17.5664C43.476 17.5664 44.6479 17.332 45.7319 16.8633V18.9727ZM52.8682 6.93164V19.5H50.5391V6.93164H52.8682ZM58.1237 19.5V6.93164H63.7487C66.3152 6.93164 67.5984 8.1123 67.5984 10.4736C67.5984 13.0342 65.8435 14.584 62.3337 15.123L61.9997 13.0488C64.1091 12.668 65.1638 11.833 65.1638 10.5439C65.1638 9.50098 64.6423 8.97949 63.5993 8.97949H60.4528V19.5H58.1237ZM74.0843 6.93164V17.4785H79.0765V19.5H71.7552V6.93164H74.0843ZM82.7939 6.93164H85.2988L88.832 12.9873L92.1543 6.93164H94.5713L89.9482 15.1055V19.5H87.6191V15.1055L82.7939 6.93164Z" fill="#828282"/>
<defs>
<filter id="filter0_d" x="0.21875" y="2.24219" width="18.0625" height="20.7578" filterUnits="userSpaceOnUse" color-interpolation-filters="sRGB">
<feFlood flood-opacity="0" result="BackgroundImageFix"/>
<feColorMatrix in="SourceAlpha" type="matrix" values="0 0 0 0 0 0 0 0 0 0 0 0 0 0 0 0 0 0 127 0"/>
<feOffset dx="-1" dy="-1"/>
<feGaussianBlur stdDeviation="1"/>
<feColorMatrix type="matrix" values="0 0 0 0 0 0 0 0 0 0 0 0 0 0 0 0 0 0 0.25 0"/>
<feBlend mode="normal" in2="BackgroundImageFix" result="effect1_dropShadow"/>
<feBlend mode="normal" in="SourceGraphic" in2="effect1_dropShadow" result="shape"/>
</filter>
</defs>
</svg>
