<svg width="130" height="54" viewBox="0 0 130 54" fill="none" xmlns="http://www.w3.org/2000/svg">
<g filter="url(#filter0_d)">
<path d="M6.4375 43.9531V10.4844H21.6719C28.5156 10.4844 31.9375 13.4766 31.9375 19.4609C31.9375 23.5078 29.2734 26.8594 23.9453 29.5156L34.5625 44H26.7344L16.5391 29.3984V26.5625C22.4766 25.5469 25.4453 23.2422 25.4453 19.6484C25.4453 17.1797 24.0547 15.9453 21.2734 15.9453H12.7656V43.9531H6.4375Z" fill="#FFBD61"/>
</g>
<path d="M44.8691 20.543C50.1191 20.543 52.7441 23.1387 52.7441 28.3301C52.7441 29.0684 52.6914 29.8594 52.5859 30.7031H39.6309C39.6309 34.4766 41.834 36.3633 46.2402 36.3633C48.3379 36.3633 50.2012 36.1289 51.8301 35.6602V38.2969C50.2012 38.7656 48.2207 39 45.8887 39C39.5488 39 36.3789 35.8535 36.3789 29.5605C36.3789 23.5488 39.209 20.543 44.8691 20.543ZM39.6309 27.9961H49.6152C49.5449 24.7617 47.9629 23.1445 44.8691 23.1445C41.5879 23.1445 39.8418 24.7617 39.6309 27.9961ZM71.0078 38.4727C69.4844 38.8242 67.8438 39 66.0859 39C59.5234 39 56.2422 35.8066 56.2422 29.4199C56.2422 23.502 59.5234 20.543 66.0859 20.543C67.8438 20.543 69.4844 20.7188 71.0078 21.0703V23.707C69.4844 23.3555 67.7852 23.1797 65.9102 23.1797C61.6328 23.1797 59.4941 25.2598 59.4941 29.4199C59.4941 34.0488 61.6328 36.3633 65.9102 36.3633C67.7852 36.3633 69.4844 36.1875 71.0078 35.8359V38.4727ZM78.7598 20.543V39H75.5078V20.543H78.7598ZM78.7598 13.8633V16.9395H75.5078V13.8633H78.7598ZM87.6543 35.2383C88.9316 35.8711 90.3555 36.1875 91.9258 36.1875C95.7578 36.1875 97.6738 33.8848 97.6738 29.2793C97.6738 25.2598 95.7695 23.25 91.9609 23.25C90.3203 23.25 88.8848 23.3906 87.6543 23.6719V35.2383ZM84.4023 21.2988C86.8516 20.7949 89.3828 20.543 91.9961 20.543C97.9141 20.543 100.873 23.4668 100.873 29.3145C100.873 35.7715 97.8965 39 91.9434 39C90.4668 39 89.0371 38.707 87.6543 38.1211V45.6797H84.4023V21.2988ZM108.713 13.8633V39H105.461V13.8633H108.713ZM111.982 20.543H115.516L120.736 34.957L126.133 20.543H129.578L121.914 39.5449C120.555 42.8965 118.516 44.9883 115.797 45.8203L114.549 43.5176C116.611 42.6152 118.111 41.1445 119.049 39.1055L111.982 20.543Z" fill="black"/>
<defs>
<filter id="filter0_d" x="0.4375" y="4.48438" width="36.125" height="41.5156" filterUnits="userSpaceOnUse" color-interpolation-filters="sRGB">
<feFlood flood-opacity="0" result="BackgroundImageFix"/>
<feColorMatrix in="SourceAlpha" type="matrix" values="0 0 0 0 0 0 0 0 0 0 0 0 0 0 0 0 0 0 127 0"/>
<feOffset dx="-2" dy="-2"/>
<feGaussianBlur stdDeviation="2"/>
<feColorMatrix type="matrix" values="0 0 0 0 0 0 0 0 0 0 0 0 0 0 0 0 0 0 0.25 0"/>
<feBlend mode="normal" in2="BackgroundImageFix" result="effect1_dropShadow"/>
<feBlend mode="normal" in="SourceGraphic" in2="effect1_dropShadow" result="shape"/>
</filter>
</defs>
</svg>
