<svg width="167" height="64" viewBox="0 0 167 64" fill="none" xmlns="http://www.w3.org/2000/svg">
<g filter="url(#filter0_d)">
<path d="M5.84375 51.4453V12.3984H23.6172C31.6016 12.3984 35.5938 15.8893 35.5938 22.8711C35.5938 27.5924 32.4857 31.5026 26.2695 34.6016L38.6562 51.5H29.5234L17.6289 34.4648V31.1562C24.556 29.9714 28.0195 27.2826 28.0195 23.0898C28.0195 20.2096 26.3971 18.7695 23.1523 18.7695H13.2266V51.4453H5.84375Z" fill="#FFBD61"/>
</g>
<path d="M53.4922 24.3906C60.4922 24.3906 63.9922 27.8516 63.9922 34.7734C63.9922 35.7578 63.9219 36.8125 63.7812 37.9375H46.5078C46.5078 42.9688 49.4453 45.4844 55.3203 45.4844C58.1172 45.4844 60.6016 45.1719 62.7734 44.5469V48.0625C60.6016 48.6875 57.9609 49 54.8516 49C46.3984 49 42.1719 44.8047 42.1719 36.4141C42.1719 28.3984 45.9453 24.3906 53.4922 24.3906ZM46.5078 34.3281H59.8203C59.7266 30.0156 57.6172 27.8594 53.4922 27.8594C49.1172 27.8594 46.7891 30.0156 46.5078 34.3281ZM88.3438 48.2969C86.3125 48.7656 84.125 49 81.7812 49C73.0312 49 68.6562 44.7422 68.6562 36.2266C68.6562 28.3359 73.0312 24.3906 81.7812 24.3906C84.125 24.3906 86.3125 24.625 88.3438 25.0938V28.6094C86.3125 28.1406 84.0469 27.9062 81.5469 27.9062C75.8438 27.9062 72.9922 30.6797 72.9922 36.2266C72.9922 42.3984 75.8438 45.4844 81.5469 45.4844C84.0469 45.4844 86.3125 45.25 88.3438 44.7812V48.2969ZM98.6797 24.3906V49H94.3438V24.3906H98.6797ZM98.6797 15.4844V19.5859H94.3438V15.4844H98.6797ZM110.539 43.9844C112.242 44.8281 114.141 45.25 116.234 45.25C121.344 45.25 123.898 42.1797 123.898 36.0391C123.898 30.6797 121.359 28 116.281 28C114.094 28 112.18 28.1875 110.539 28.5625V43.9844ZM106.203 25.3984C109.469 24.7266 112.844 24.3906 116.328 24.3906C124.219 24.3906 128.164 28.2891 128.164 36.0859C128.164 44.6953 124.195 49 116.258 49C114.289 49 112.383 48.6094 110.539 47.8281V57.9062H106.203V25.3984ZM138.617 15.4844V49H134.281V15.4844H138.617ZM142.977 24.3906H147.688L154.648 43.6094L161.844 24.3906H166.438L156.219 49.7266C154.406 54.1953 151.688 56.9844 148.062 58.0938L146.398 55.0234C149.148 53.8203 151.148 51.8594 152.398 49.1406L142.977 24.3906Z" fill="black"/>
<defs>
<filter id="filter0_d" x="0.84375" y="7.39844" width="37.8125" height="44.1016" filterUnits="userSpaceOnUse" color-interpolation-filters="sRGB">
<feFlood flood-opacity="0" result="BackgroundImageFix"/>
<feColorMatrix in="SourceAlpha" type="matrix" values="0 0 0 0 0 0 0 0 0 0 0 0 0 0 0 0 0 0 127 0"/>
<feOffset dx="-3" dy="-3"/>
<feGaussianBlur stdDeviation="1"/>
<feColorMatrix type="matrix" values="0 0 0 0 0 0 0 0 0 0 0 0 0 0 0 0 0 0 0.46 0"/>
<feBlend mode="normal" in2="BackgroundImageFix" result="effect1_dropShadow"/>
<feBlend mode="normal" in="SourceGraphic" in2="effect1_dropShadow" result="shape"/>
</filter>
</defs>
</svg>
