<svg width="127" height="40" viewBox="0 0 127 40" fill="none" xmlns="http://www.w3.org/2000/svg">
<g filter="url(#filter0_d)">
<path d="M3.32812 31.9648V6.86328H14.7539C19.8867 6.86328 22.4531 9.10742 22.4531 13.5957C22.4531 16.6309 20.4551 19.1445 16.459 21.1367L24.4219 32H18.5508L10.9043 21.0488V18.9219C15.3574 18.1602 17.584 16.4316 17.584 13.7363C17.584 11.8848 16.541 10.959 14.4551 10.959H8.07422V31.9648H3.32812Z" fill="#7B61FF"/>
</g>
<path d="M41.768 11.7422V14.4141H33.3773V18.6328H41.3695V21.4102H33.3422V25.8047H41.932V28.5H30.2953V11.7422H41.768ZM61.6425 27.7969C60.1972 28.3438 58.5566 28.6172 56.7206 28.6172C50.705 28.6172 47.6972 25.707 47.6972 19.8867C47.6972 14.3789 50.705 11.625 56.7206 11.625C58.5566 11.625 60.1972 11.8984 61.6425 12.4453V15.2578C60.1972 14.6328 58.6347 14.3203 56.955 14.3203C52.9316 14.3203 50.9198 16.1758 50.9198 19.8867C50.9198 23.9102 52.9316 25.9219 56.955 25.9219C58.6347 25.9219 60.1972 25.6094 61.6425 24.9844V27.7969ZM71.1577 11.7422V28.5H68.0522V11.7422H71.1577ZM78.165 28.5V11.7422H85.665C89.0869 11.7422 90.7978 13.3164 90.7978 16.4648C90.7978 19.8789 88.458 21.9453 83.7783 22.6641L83.333 19.8984C86.1455 19.3906 87.5517 18.2773 87.5517 16.5586C87.5517 15.168 86.8564 14.4727 85.4658 14.4727H81.2705V28.5H78.165ZM99.4458 11.7422V25.8047H106.102V28.5H96.3403V11.7422H99.4458ZM111.059 11.7422H114.398L119.109 19.8164L123.539 11.7422H126.762L120.598 22.6406V28.5H117.492V22.6406L111.059 11.7422Z" fill="#828282"/>
<defs>
<filter id="filter0_d" x="0.328125" y="3.86328" width="25.0938" height="29.1367" filterUnits="userSpaceOnUse" color-interpolation-filters="sRGB">
<feFlood flood-opacity="0" result="BackgroundImageFix"/>
<feColorMatrix in="SourceAlpha" type="matrix" values="0 0 0 0 0 0 0 0 0 0 0 0 0 0 0 0 0 0 127 0"/>
<feOffset dx="-1" dy="-1"/>
<feGaussianBlur stdDeviation="1"/>
<feColorMatrix type="matrix" values="0 0 0 0 0 0 0 0 0 0 0 0 0 0 0 0 0 0 0.25 0"/>
<feBlend mode="normal" in2="BackgroundImageFix" result="effect1_dropShadow"/>
<feBlend mode="normal" in="SourceGraphic" in2="effect1_dropShadow" result="shape"/>
</filter>
</defs>
</svg>
